name D:\Dropbox\PhD\Testing MOtoNMS\ElaboratedData\Subject8\30-07-18\dynamicElaborations\right\PassiveA1\PassiveA1.mot
datacolumns 19
datarows 23
range 1.79500000000000 1.83167000000000
endheader
time	    ground_force1_vx	    ground_force1_vy	    ground_force1_vz	    ground_force1_px	    ground_force1_py	    ground_force1_pz	    ground_force2_vx	    ground_force2_vy	    ground_force2_vz	    ground_force2_px	    ground_force2_py	    ground_force2_pz	    ground_torque1_x	    ground_torque1_y	    ground_torque1_z	    ground_torque2_x	    ground_torque2_y	    ground_torque2_z	
1.79500000000000	-56.81662356000000	475.30064729999998	54.76665117000000	0.24850023000000	0.00000000000000	-0.19351949000000	-0.00000000000000	0.00000000000000	-0.00000000000000	-0.00000000000000	0.00000000000000	-0.00000000000000	-0.00000000000000	1.04824694000000	0.00000000000000	-0.00000000000000	0.00000000000000	-0.00000000000000	
1.79667000000000	-57.57977596000000	475.52223508999998	54.97967155000000	0.24961251000000	0.00000000000000	-0.19348263000000	-0.00000000000000	0.00000000000000	-0.00000000000000	-0.00000000000000	0.00000000000000	-0.00000000000000	-0.00000000000000	1.04802323000000	0.00000000000000	-0.00000000000000	0.00000000000000	-0.00000000000000	
1.79833000000000	-58.34983494000000	475.71514216000003	55.19047096000000	0.25073328000000	0.00000000000000	-0.19344557000000	-0.00000000000000	0.00000000000000	-0.00000000000000	-0.00000000000000	0.00000000000000	-0.00000000000000	-0.00000000000000	1.04838984000000	0.00000000000000	-0.00000000000000	0.00000000000000	-0.00000000000000	
1.80000000000000	-59.12533242000000	475.87312945999997	55.39816511000000	0.25186186000000	0.00000000000000	-0.19340831000000	-0.00000000000000	0.00000000000000	-0.00000000000000	-0.00000000000000	0.00000000000000	-0.00000000000000	-0.00000000000000	1.04933980000000	0.00000000000000	-0.00000000000000	0.00000000000000	-0.00000000000000	
1.80167000000000	-59.90472141000000	475.98980876000002	55.60184412000000	0.25299752000000	0.00000000000000	-0.19337088000000	-0.00000000000000	0.00000000000000	-0.00000000000000	-0.00000000000000	0.00000000000000	-0.00000000000000	-0.00000000000000	1.05086223000000	0.00000000000000	-0.00000000000000	0.00000000000000	-0.00000000000000	
1.80333000000000	-60.68637846000000	476.05865975000000	55.80057446000000	0.25413950000000	0.00000000000000	-0.19333328000000	-0.00000000000000	0.00000000000000	-0.00000000000000	-0.00000000000000	0.00000000000000	-0.00000000000000	-0.00000000000000	1.05294238000000	0.00000000000000	-0.00000000000000	0.00000000000000	-0.00000000000000	
1.80500000000000	-61.46860646000000	476.07304792999997	55.99340093000000	0.25528703000000	0.00000000000000	-0.19329553000000	-0.00000000000000	0.00000000000000	-0.00000000000000	-0.00000000000000	0.00000000000000	-0.00000000000000	-0.00000000000000	1.05556186000000	0.00000000000000	-0.00000000000000	0.00000000000000	-0.00000000000000	
1.80667000000000	-62.24963784000000	476.02624342000001	56.17934891000000	0.25643930000000	0.00000000000000	-0.19325765000000	-0.00000000000000	0.00000000000000	-0.00000000000000	-0.00000000000000	0.00000000000000	-0.00000000000000	-0.00000000000000	1.05869872000000	0.00000000000000	-0.00000000000000	0.00000000000000	-0.00000000000000	
1.80833000000000	-63.02763828000000	475.91144051999999	56.35742667000000	0.25759547000000	0.00000000000000	-0.19321964000000	-0.00000000000000	0.00000000000000	-0.00000000000000	-0.00000000000000	0.00000000000000	-0.00000000000000	-0.00000000000000	1.06232769000000	0.00000000000000	-0.00000000000000	0.00000000000000	-0.00000000000000	
1.81000000000000	-63.80071072000000	475.72177819000001	56.52662786000000	0.25875470000000	0.00000000000000	-0.19318153000000	-0.00000000000000	0.00000000000000	-0.00000000000000	-0.00000000000000	0.00000000000000	-0.00000000000000	-0.00000000000000	1.06642040000000	0.00000000000000	-0.00000000000000	0.00000000000000	-0.00000000000000	
1.81167000000000	-64.56689981000000	475.45036126000002	56.68593407000000	0.25991614000000	0.00000000000000	-0.19314332000000	-0.00000000000000	0.00000000000000	-0.00000000000000	-0.00000000000000	0.00000000000000	-0.00000000000000	-0.00000000000000	1.07094557000000	0.00000000000000	-0.00000000000000	0.00000000000000	-0.00000000000000	
1.81333000000000	-65.32419671000000	475.09028253000002	56.83431760000000	0.26107892000000	0.00000000000000	-0.19310503000000	-0.00000000000000	0.00000000000000	-0.00000000000000	-0.00000000000000	0.00000000000000	-0.00000000000000	-0.00000000000000	1.07586926000000	0.00000000000000	-0.00000000000000	0.00000000000000	-0.00000000000000	
1.81500000000000	-66.07054425000000	474.63464564999998	56.97074426000000	0.26224217000000	0.00000000000000	-0.19306666000000	-0.00000000000000	0.00000000000000	-0.00000000000000	-0.00000000000000	0.00000000000000	-0.00000000000000	-0.00000000000000	1.08115509000000	0.00000000000000	-0.00000000000000	0.00000000000000	-0.00000000000000	
1.81667000000000	-66.80384238000001	474.07658894000002	57.09417635000000	0.26340502000000	0.00000000000000	-0.19302824000000	-0.00000000000000	0.00000000000000	-0.00000000000000	-0.00000000000000	0.00000000000000	-0.00000000000000	-0.00000000000000	1.08676441000000	0.00000000000000	-0.00000000000000	0.00000000000000	-0.00000000000000	
1.81833000000000	-67.52195389000001	473.40931002000002	57.20357567000000	0.26456659000000	0.00000000000000	-0.19298976000000	-0.00000000000000	0.00000000000000	-0.00000000000000	-0.00000000000000	0.00000000000000	-0.00000000000000	-0.00000000000000	1.09265655000000	0.00000000000000	-0.00000000000000	0.00000000000000	-0.00000000000000	
1.82000000000000	-68.22271044999999	472.62609122999999	57.29790679000000	0.26572602000000	0.00000000000000	-0.19295126000000	-1.09597177000000	3.29677501000000	1.02639069000000	-0.00000000000000	0.00000000000000	-0.00000000000000	-0.00000000000000	1.09878890000000	0.00000000000000	0.00000000000000	-0.08653752000000	-0.00000000000000	
1.82167000000000	-68.90391882999999	471.72032595000002	57.37614019000000	0.26688245000000	0.00000000000000	-0.19291272000000	-1.76475363000000	6.73773470000000	1.75564431000000	-0.00000000000000	0.00000000000000	-0.00000000000000	-0.00000000000000	1.10511716000000	0.00000000000000	0.00000000000000	-0.14201781000000	-0.00000000000000	
1.82333000000000	-69.56336730000000	470.68554553000001	57.43725573000000	0.26803502000000	0.00000000000000	-0.19287418000000	-2.52360008000000	10.94881490000000	2.60367269000000	-0.00000000000000	0.00000000000000	-0.00000000000000	-0.00000000000000	1.11159542000000	0.00000000000000	0.00000000000000	-0.20546109000000	-0.00000000000000	
1.82500000000000	-70.19883225000000	469.51544686000000	57.48024603000000	0.26918291000000	0.00000000000000	-0.19283562000000	-3.35024351000000	15.90045542000000	3.55143419000000	-0.00000000000000	0.00000000000000	-0.00000000000000	-0.00000000000000	1.11817633000000	0.00000000000000	0.00000000000000	-0.27513167000000	-0.00000000000000	
1.82667000000000	-70.80808494000000	468.20392022999999	57.50411997000000	0.27032526000000	0.00000000000000	-0.19279708000000	-4.21666573000000	21.53090330000000	4.57321906000000	-0.00000000000000	0.00000000000000	-0.00000000000000	-0.00000000000000	1.12481120000000	0.00000000000000	0.00000000000000	-0.34880079000000	-0.00000000000000	
1.82833000000000	-71.38889836000000	466.74507745000000	57.50790628000000	0.27146128000000	0.00000000000000	-0.19275855000000	-5.09093906000000	27.75110220000000	5.63831962000000	0.06835471000000	0.00000000000000	0.04177662000000	-0.00000000000000	1.13145014000000	0.00000000000000	-0.00000000000000	0.17419751000000	0.00000000000000	
1.83000000000000	-71.93905427000000	465.13327973000003	57.49065712000000	0.27259015000000	0.00000000000000	-0.19272005000000	-5.93955951000000	34.45246206000000	6.71327026000000	0.06442450000000	0.00000000000000	0.04272834000000	-0.00000000000000	1.13804222000000	0.00000000000000	-0.00000000000000	0.18862751000000	0.00000000000000	
1.83167000000000	-72.45635027000000	463.36316498000002	57.45145165000000	0.27371108000000	0.00000000000000	-0.19268159000000	-6.72997637000000	41.51647053000000	7.76437079000000	0.06088488000000	0.00000000000000	0.04360052000000	-0.00000000000000	1.14453557000000	0.00000000000000	-0.00000000000000	0.19875753000000	0.00000000000000	
